<?xml version="1.0" encoding="utf-8"?>
<svg version="1.1" xmlns:xlink="http://www.w3.org/1999/xlink" width="12px" height="12px" viewBox="516 202.5  12 12" xmlns="http://www.w3.org/2000/svg">
  <path d="M 522 202.5  C 525.36 202.5  528 205.14  528 208.5  C 528 211.86  525.36 214.5  522 214.5  C 518.64 214.5  516 211.86  516 208.5  C 516 205.14  518.64 202.5  522 202.5  Z " fill-rule="nonzero" fill="#ffffff" stroke="none" />
  <path d="M 522 203  C 525.08 203  527.5 205.42  527.5 208.5  C 527.5 211.58  525.08 214  522 214  C 518.92 214  516.5 211.58  516.5 208.5  C 516.5 205.42  518.92 203  522 203  Z " stroke-width="1" stroke="#797979" fill="none" />
  <path d="M 522 211.5  C 520.32 211.5  519 210.18  519 208.5  C 519 206.82  520.32 205.5  522 205.5  C 523.68 205.5  525 206.82  525 208.5  C 525 210.18  523.68 211.5  522 211.5  " fill-rule="nonzero" fill="#797979" stroke="none" />
</svg>