<?xml version="1.0" encoding="utf-8"?>
<svg version="1.1" xmlns:xlink="http://www.w3.org/1999/xlink" width="12px" height="12px" viewBox="778 202.5  12 12" xmlns="http://www.w3.org/2000/svg">
  <path d="M 784 202.5  C 787.36 202.5  790 205.14  790 208.5  C 790 211.86  787.36 214.5  784 214.5  C 780.64 214.5  778 211.86  778 208.5  C 778 205.14  780.64 202.5  784 202.5  Z " fill-rule="nonzero" fill="#ffffff" stroke="none" />
  <path d="M 784 203  C 787.08 203  789.5 205.42  789.5 208.5  C 789.5 211.58  787.08 214  784 214  C 780.92 214  778.5 211.58  778.5 208.5  C 778.5 205.42  780.92 203  784 203  Z " stroke-width="1" stroke="#797979" fill="none" />
  <path d="M 784 211.5  C 782.32 211.5  781 210.18  781 208.5  C 781 206.82  782.32 205.5  784 205.5  C 785.68 205.5  787 206.82  787 208.5  C 787 210.18  785.68 211.5  784 211.5  " fill-rule="nonzero" fill="#797979" stroke="none" />
</svg>